<svg xmlns="http://www.w3.org/2000/svg" xmlns:xlink="http://www.w3.org/1999/xlink" preserveAspectRatio="xMidYMid" width="500" height="500" viewBox="0 0 40 40">
  <defs>
    <style>
      .cls-1 {
        fill: #ed4c4c;
      }

      .cls-2 {
        fill: #fff;
        fill-rule: evenodd;
      }
    </style>
  </defs>
  <g>
    <circle cx="20" cy="20" r="20" class="cls-1"/>
    <path d="M29.338,19.170 C29.187,18.787 28.926,18.461 28.589,18.236 L23.798,13.442 C23.017,12.661 21.751,12.661 20.970,13.440 C20.188,14.222 20.188,15.489 20.969,16.270 L22.597,17.899 L12.479,17.899 C11.375,17.899 10.479,18.794 10.479,19.898 C10.479,21.003 11.375,21.899 12.479,21.899 L22.799,21.899 L20.969,23.729 C20.188,24.510 20.188,25.776 20.969,26.557 C21.360,26.947 21.871,27.143 22.383,27.143 C22.895,27.143 23.407,26.947 23.798,26.557 L28.939,21.414 C29.547,20.807 29.675,19.909 29.338,19.170 Z" class="cls-2"/>
  </g>
</svg>
